<?xml version="1.0" standalone="no"?>
<!DOCTYPE svg PUBLIC "-//W3C//DTD SVG 20010904//EN"
 "http://www.w3.org/TR/2001/REC-SVG-20010904/DTD/svg10.dtd">
<svg version="1.0" xmlns="http://www.w3.org/2000/svg"
 width="906.000000pt" height="850.000000pt" viewBox="0 0 906.000000 850.000000"
 preserveAspectRatio="xMidYMid meet">
<metadata>
RspiderX Initial Architecture
</metadata>
<g transform="translate(0.000000,850.000000) scale(0.100000,-0.100000)"
fill="#000000" stroke="none">
<path d="M3690 7510 c0 -192 -2 -350 -5 -350 -3 0 -23 9 -45 20 -38 19 -68 11
-33 -9 13 -7 -84 -10 -324 -11 -222 0 -343 -4 -343 -10 0 -6 123 -10 348 -10
285 -1 343 -3 324 -13 -38 -22 -12 -27 29 -7 21 11 41 20 44 20 3 0 5 -157 5
-350 l0 -350 1260 0 1260 0 0 495 c0 272 2 495 5 495 3 0 23 -9 44 -20 41 -20
67 -15 29 7 -20 11 -9 12 80 13 61 0 102 4 102 10 0 6 -39 10 -97 10 -72 1
-93 3 -80 11 35 20 5 28 -33 9 -22 -11 -42 -20 -45 -20 -3 0 -5 92 -5 205 l0
205 -1260 0 -1260 0 0 -350z m2500 -360 l0 -690 -1240 0 -1240 0 0 690 0 690
1240 0 1240 0 0 -690z"/>
<path d="M4992 7720 c0 -41 2 -47 7 -25 9 43 38 45 44 3 l5 -33 -2 35 c-1 28
-5 35 -21 35 -11 0 -23 9 -27 20 -3 11 -6 -4 -6 -35z"/>
<path d="M4741 7713 c1 -27 4 -38 6 -26 2 13 13 24 26 26 l22 4 -22 2 c-13 0
-23 7 -23 15 0 8 10 17 23 19 19 4 18 4 -5 6 -27 1 -28 -1 -27 -46z"/>
<path d="M4878 7747 c-7 -21 6 -70 20 -73 7 -1 8 0 2 3 -12 6 -13 50 -1 55 5
2 3 8 -4 15 -10 9 -14 9 -17 0z"/>
<path d="M4820 7726 c-23 -28 17 -73 42 -48 8 8 5 9 -9 6 -12 -3 -24 -1 -27 5
-5 7 3 11 19 11 20 0 26 4 23 17 -4 23 -31 28 -48 9z m35 -6 c3 -5 -3 -10 -15
-10 -12 0 -18 5 -15 10 3 6 10 10 15 10 5 0 12 -4 15 -10z"/>
<path d="M4935 7721 c-11 -35 22 -71 39 -42 3 5 -2 8 -12 7 -11 -1 -17 6 -17
19 0 13 6 20 17 19 10 -1 15 2 12 7 -9 16 -32 10 -39 -10z"/>
<path d="M5070 7726 c-23 -28 17 -73 42 -48 8 8 5 9 -9 6 -12 -3 -24 -1 -27 5
-5 7 3 11 19 11 20 0 26 4 23 17 -4 23 -31 28 -48 9z m35 -6 c3 -5 -3 -10 -15
-10 -12 0 -18 5 -15 10 3 6 10 10 15 10 5 0 12 -4 15 -10z"/>
<path d="M5141 7700 c1 -27 3 -29 6 -10 2 14 11 30 20 37 13 10 13 12 -6 10
-17 -1 -21 -7 -20 -37z"/>
<path d="M3840 7227 l0 -344 93 -27 c50 -15 98 -29 105 -32 6 -2 12 -10 12
-17 0 -13 154 -67 188 -67 6 0 12 -8 12 -17 0 -36 296 -103 455 -103 144 0
319 37 529 109 225 79 528 73 774 -13 l42 -15 0 344 0 345 -100 0 -100 0 0 45
0 45 -105 0 -105 0 0 45 0 45 -900 0 -900 0 0 -343z m1780 288 l0 -35 -785 0
-785 0 0 -315 0 -315 -22 1 c-13 0 -54 10 -93 22 l-70 23 -3 327 -2 327 880 0
880 0 0 -35z m210 -90 l0 -35 -790 0 -790 0 0 -315 c0 -361 13 -328 -110 -291
l-75 22 -3 327 -2 327 885 0 885 0 0 -35z m200 -376 c0 -301 -1 -321 -17 -316
-210 62 -340 78 -519 65 -114 -9 -206 -29 -349 -78 -181 -62 -254 -74 -440
-74 -172 0 -266 14 -390 57 l-40 14 -3 327 -2 326 880 0 880 0 0 -321z"/>
<path d="M4413 7090 c0 -25 2 -35 4 -22 2 12 2 32 0 45 -2 12 -4 2 -4 -23z"/>
<path d="M4351 7083 c1 -21 3 -31 6 -22 2 10 13 19 25 22 25 7 19 31 -10 35
-19 3 -22 -1 -21 -35z m39 17 c0 -5 -7 -10 -15 -10 -8 0 -15 5 -15 10 0 6 7
10 15 10 8 0 15 -4 15 -10z"/>
<path d="M4772 7085 c0 -22 2 -32 5 -22 2 9 13 17 23 17 10 0 21 -8 23 -17 3
-10 5 0 5 22 0 22 -2 32 -5 23 -2 -10 -13 -18 -23 -18 -10 0 -21 8 -23 18 -3
9 -5 -1 -5 -23z"/>
<path d="M4847 7112 c6 -4 13 -21 16 -37 l4 -30 2 32 c0 17 7 34 14 36 6 3 -1
6 -18 6 -16 0 -25 -3 -18 -7z"/>
<path d="M4907 7112 c6 -4 13 -21 16 -37 l4 -30 2 32 c0 17 7 34 14 36 6 3 -1
6 -18 6 -16 0 -25 -3 -18 -7z"/>
<path d="M4961 7083 c1 -21 3 -31 6 -22 2 10 13 19 25 22 25 7 19 31 -10 35
-19 3 -22 -1 -21 -35z m39 17 c0 -5 -7 -10 -15 -10 -8 0 -15 5 -15 10 0 6 7
10 15 10 8 0 15 -4 15 -10z"/>
<path d="M5036 7111 c-4 -5 3 -7 14 -4 26 7 25 -5 -2 -34 l-21 -23 29 1 c18 1
22 3 11 6 -17 4 -17 6 -2 23 9 10 14 24 10 29 -8 13 -32 14 -39 2z"/>
<path d="M5162 7085 c0 -22 2 -32 5 -22 2 9 13 17 23 17 10 0 21 -8 23 -17 3
-10 5 0 5 22 0 22 -2 32 -5 23 -2 -10 -13 -18 -23 -18 -10 0 -21 8 -23 18 -3
9 -5 -1 -5 -23z"/>
<path d="M5237 7112 c6 -4 13 -21 16 -37 l4 -30 2 33 c1 25 5 32 21 32 16 0
20 -7 21 -32 l2 -33 4 30 c3 16 10 33 16 37 7 4 -13 8 -43 8 -30 0 -50 -4 -43
-8z"/>
<path d="M5351 7083 c1 -21 3 -31 6 -22 2 10 13 19 25 22 25 7 19 31 -10 35
-19 3 -22 -1 -21 -35z m39 17 c0 -5 -7 -10 -15 -10 -8 0 -15 5 -15 10 0 6 7
10 15 10 8 0 15 -4 15 -10z"/>
<path d="M5418 7113 c6 -2 12 -15 12 -28 0 -13 -6 -26 -12 -28 -7 -3 1 -5 17
-5 17 0 24 2 18 5 -7 2 -13 18 -13 34 0 21 -5 29 -17 28 -11 0 -13 -3 -5 -6z"/>
<path d="M4443 7081 c1 -14 9 -26 17 -28 10 -3 11 -2 4 4 -7 4 -14 17 -17 28
-5 16 -5 15 -4 -4z"/>
<path d="M4482 7075 c0 -16 2 -22 5 -12 2 9 2 23 0 30 -3 6 -5 -1 -5 -18z"/>
<path d="M4504 7085 c-8 -19 3 -35 24 -36 14 0 13 -2 -3 -10 l-20 -9 20 3 c15
1 21 11 23 35 3 27 0 32 -18 32 -11 0 -23 -7 -26 -15z m36 -10 c0 -8 -7 -15
-15 -15 -8 0 -15 7 -15 15 0 8 7 15 15 15 8 0 15 -7 15 -15z"/>
<path d="M4562 7075 c0 -16 2 -22 5 -12 2 9 2 23 0 30 -3 6 -5 -1 -5 -18z"/>
<path d="M4592 7075 c0 -16 2 -22 5 -12 2 9 2 23 0 30 -3 6 -5 -1 -5 -18z"/>
<path d="M4616 7093 c7 -4 14 -17 17 -28 5 -16 5 -15 4 4 -1 14 -9 26 -17 28
-10 3 -11 2 -4 -4z"/>
<path d="M4655 7090 c-3 -6 2 -13 11 -17 16 -6 16 -7 -2 -15 -19 -8 -19 -8 0
-5 25 3 33 27 9 28 -16 0 -16 1 2 9 16 7 17 9 3 9 -9 1 -20 -4 -23 -9z"/>
<path d="M7790 7655 l0 -205 -190 0 c-120 0 -190 -4 -190 -10 0 -6 70 -10 190
-10 l190 0 0 -265 c0 -260 0 -265 -19 -255 -30 16 -49 12 -27 -5 18 -13 6 -15
-112 -15 -81 0 -132 -4 -132 -10 0 -6 51 -10 133 -10 95 -1 127 -3 114 -11
-24 -14 -12 -32 13 -19 10 5 21 10 24 10 3 0 6 -252 6 -560 l0 -560 -155 0
c-97 0 -155 -4 -155 -10 0 -6 58 -10 155 -10 l155 0 0 -285 0 -285 -40 20
c-46 23 -74 26 -46 5 18 -13 5 -15 -117 -15 -85 0 -137 -4 -137 -10 0 -6 53
-10 138 -10 99 -1 132 -3 119 -11 -35 -20 -5 -28 33 -9 22 11 42 20 45 20 3 0
5 -274 5 -610 l0 -610 -160 0 c-100 0 -160 -4 -160 -10 0 -6 60 -10 160 -10
l160 0 0 -296 c0 -278 -1 -296 -17 -289 -10 4 -27 9 -38 12 -20 4 -20 4 -1
-11 19 -15 15 -16 -47 -16 -38 0 -67 -4 -67 -10 0 -6 29 -10 68 -10 51 -1 63
-3 49 -11 -30 -17 -8 -30 24 -14 l29 16 0 -1361 0 -1360 510 0 510 0 0 3660 0
3660 -510 0 -510 0 0 -205z m1000 -3455 l0 -3640 -490 0 -490 0 0 3155 c0
2442 3 3155 12 3155 9 0 9 3 0 12 -9 9 -12 130 -12 485 l0 473 490 0 490 0 0
-3640z"/>
<path d="M7952 4215 c1 -46 1 -47 7 -15 6 32 8 33 15 13 4 -13 11 -23 16 -23
5 0 12 10 16 23 7 20 9 19 15 -13 6 -32 6 -31 7 15 1 45 0 48 -13 31 -8 -10
-17 -24 -20 -30 -4 -8 -6 -8 -10 0 -3 6 -12 20 -20 30 -13 17 -14 14 -13 -31z"/>
<path d="M8470 4215 c0 -45 1 -46 28 -43 24 3 27 7 27 43 0 36 -3 40 -27 43
-27 3 -28 2 -28 -43z m50 20 c0 -8 -9 -15 -20 -15 -11 0 -20 7 -20 15 0 8 9
15 20 15 11 0 20 -7 20 -15z m0 -40 c0 -8 -9 -15 -20 -15 -11 0 -20 7 -20 15
0 8 9 15 20 15 11 0 20 -7 20 -15z"/>
<path d="M8060 4226 c-23 -28 17 -73 42 -48 8 8 5 9 -9 6 -12 -3 -24 -1 -27 5
-5 7 3 11 19 11 20 0 26 4 23 17 -4 23 -31 28 -48 9z m35 -6 c3 -5 -3 -10 -15
-10 -12 0 -18 5 -15 10 3 6 10 10 15 10 5 0 12 -4 15 -10z"/>
<path d="M8135 4230 c-8 -14 3 -30 21 -30 8 0 14 -5 14 -11 0 -7 -9 -9 -21 -6
-16 4 -19 3 -11 -5 12 -12 42 -4 42 13 0 6 -9 13 -20 16 -11 3 -20 10 -20 15
0 6 9 8 20 5 11 -3 18 -1 14 4 -7 12 -31 11 -39 -1z"/>
<path d="M8195 4230 c-8 -14 3 -30 21 -30 8 0 14 -5 14 -11 0 -7 -9 -9 -21 -6
-16 4 -19 3 -11 -5 12 -12 42 -4 42 13 0 6 -9 13 -20 16 -11 3 -20 10 -20 15
0 6 9 8 20 5 11 -3 18 -1 14 4 -7 12 -31 11 -39 -1z"/>
<path d="M8255 4231 c-3 -7 0 -8 9 -5 8 3 21 2 28 -2 9 -6 5 -10 -12 -14 -35
-8 -32 -35 3 -36 26 -1 28 2 25 30 -2 23 -9 32 -25 34 -11 2 -24 -2 -28 -7z
m40 -41 c-3 -5 -13 -10 -21 -10 -8 0 -14 5 -14 10 0 6 9 10 21 10 11 0 17 -4
14 -10z"/>
<path d="M8334 4226 c-11 -28 1 -51 24 -50 12 0 21 -4 19 -10 -2 -6 -12 -10
-22 -9 -12 1 -14 -2 -7 -9 22 -22 42 0 42 45 0 38 -2 43 -25 45 -15 1 -28 -4
-31 -12z m43 -12 c8 -21 -13 -42 -28 -27 -13 13 -5 43 11 43 6 0 13 -7 17 -16z"/>
<path d="M8410 4226 c-23 -28 17 -73 42 -48 8 8 5 9 -9 6 -12 -3 -24 -1 -27 5
-5 7 3 11 19 11 20 0 26 4 23 17 -4 23 -31 28 -48 9z m35 -6 c3 -5 -3 -10 -15
-10 -12 0 -18 5 -15 10 3 6 10 10 15 10 5 0 12 -4 15 -10z"/>
<path d="M8553 4208 c2 -28 6 -33 30 -34 25 -1 27 2 26 35 -1 36 -1 36 -8 6
-9 -42 -38 -45 -45 -6 l-6 31 3 -32z"/>
<path d="M8625 4230 c-8 -14 3 -30 21 -30 8 0 14 -5 14 -11 0 -7 -9 -9 -21 -6
-16 4 -19 3 -11 -5 12 -12 42 -4 42 13 0 6 -9 13 -20 16 -11 3 -20 10 -20 15
0 6 9 8 20 5 11 -3 18 -1 14 4 -7 12 -31 11 -39 -1z"/>
<path d="M883 7665 c-214 -39 -420 -152 -514 -284 -45 -63 -79 -162 -79 -231
0 -69 34 -168 79 -231 95 -133 301 -246 520 -284 107 -19 315 -19 422 0 219
38 425 151 520 284 37 51 79 159 79 202 0 24 2 24 49 -1 41 -20 67 -15 29 7
-19 10 31 12 285 13 198 0 307 4 307 10 0 6 -108 10 -302 10 -213 1 -298 4
-285 11 35 20 5 28 -33 9 -48 -25 -50 -25 -50 -1 0 43 -42 151 -79 202 -95
133 -301 246 -520 284 -102 18 -329 18 -428 0z m447 -22 c239 -47 451 -183
526 -338 25 -53 28 -71 28 -155 0 -84 -3 -102 -28 -155 -57 -117 -217 -243
-383 -300 -123 -42 -218 -57 -373 -57 -155 0 -250 15 -373 57 -166 57 -326
183 -383 300 -25 53 -28 71 -28 155 0 83 3 102 27 151 132 271 572 424 987
342z"/>
<path d="M883 7165 c0 -27 2 -38 4 -22 2 15 2 37 0 50 -2 12 -4 0 -4 -28z"/>
<path d="M977 7196 c-3 -7 -18 -11 -36 -10 -30 2 -31 0 -30 -34 1 -36 1 -36 8
-7 9 43 39 45 44 3 l4 -33 3 35 2 35 7 -29 c3 -16 12 -31 19 -32 7 -1 8 0 2 3
-12 6 -13 50 -1 55 5 2 3 8 -4 15 -10 9 -14 9 -18 -1z"/>
<path d="M1288 7197 c-7 -21 6 -70 20 -73 7 -1 8 0 2 3 -12 6 -13 50 -1 55 5
2 3 8 -4 15 -10 9 -14 9 -17 0z"/>
<path d="M1040 7176 c-23 -28 17 -73 42 -48 8 8 5 9 -9 6 -12 -3 -24 -1 -27 5
-5 7 3 11 19 11 20 0 26 4 23 17 -4 23 -31 28 -48 9z m35 -6 c3 -5 -3 -10 -15
-10 -12 0 -18 5 -15 10 3 6 10 10 15 10 5 0 12 -4 15 -10z"/>
<path d="M1101 7150 c1 -27 3 -29 6 -10 2 14 11 30 20 37 13 10 13 12 -6 10
-17 -1 -21 -7 -20 -37z"/>
<path d="M1151 7151 c1 -36 1 -36 8 -6 8 40 38 46 44 8 4 -28 4 -28 3 2 -1 26
-5 30 -28 31 -26 1 -28 -2 -27 -35z"/>
<path d="M1230 7176 c-23 -28 17 -73 42 -48 8 8 5 9 -9 6 -12 -3 -24 -1 -27 5
-5 7 3 11 19 11 20 0 26 4 23 17 -4 23 -31 28 -48 9z m35 -6 c3 -5 -3 -10 -15
-10 -12 0 -18 5 -15 10 3 6 10 10 15 10 5 0 12 -4 15 -10z"/>
<path d="M6513 7455 c0 -27 2 -40 4 -27 3 15 11 22 28 22 17 0 25 -7 28 -22 2
-13 4 0 4 27 0 28 -2 40 -4 28 -3 -16 -11 -23 -28 -23 -17 0 -25 7 -28 23 -2
12 -4 0 -4 -28z"/>
<path d="M6602 7493 c12 -3 18 -17 21 -46 l4 -42 1 43 c2 39 4 42 31 42 28 0
30 -3 34 -42 l4 -43 1 42 c2 30 7 43 20 46 9 3 -17 5 -58 5 -41 0 -67 -2 -58
-5z"/>
<path d="M6741 7453 c1 -26 4 -38 6 -26 3 13 13 23 26 25 34 5 29 42 -5 46
-27 3 -28 2 -27 -45z m42 22 c1 -5 -6 -11 -15 -13 -11 -2 -18 3 -18 13 0 17
30 18 33 0z"/>
<path d="M6851 7453 c1 -26 4 -38 6 -25 2 12 10 22 17 22 8 0 21 -10 30 -22 9
-13 14 -16 9 -8 -4 8 -7 28 -8 45 0 25 -4 31 -27 33 -27 3 -28 2 -27 -45z m42
22 c1 -5 -6 -11 -15 -13 -11 -2 -18 3 -18 13 0 17 30 18 33 0z"/>
<path d="M7277 7487 c-2 -6 -14 -12 -27 -12 -30 0 -39 -25 -11 -32 12 -3 21
-10 21 -15 0 -6 -10 -8 -21 -5 -16 4 -19 3 -11 -5 12 -12 42 -4 42 13 0 6 -9
13 -20 16 -27 7 -25 25 3 21 14 -2 24 -12 27 -27 3 -13 11 -26 18 -27 7 -1 8
0 2 3 -12 6 -13 50 -1 55 5 2 3 8 -4 15 -11 10 -14 10 -18 0z"/>
<path d="M6940 7466 c-23 -28 17 -73 42 -48 8 8 5 9 -9 6 -12 -3 -24 -1 -27 5
-5 7 3 11 19 11 20 0 26 4 23 17 -4 23 -31 28 -48 9z m35 -6 c3 -5 -3 -10 -15
-10 -12 0 -18 5 -15 10 3 6 10 10 15 10 5 0 12 -4 15 -10z"/>
<path d="M7004 7466 c-10 -26 1 -51 21 -51 11 0 23 -9 27 -20 3 -12 6 0 7 30
1 47 -1 51 -24 53 -15 1 -28 -4 -31 -12z m43 -12 c8 -21 -13 -42 -28 -27 -13
13 -5 43 11 43 6 0 13 -7 17 -16z"/>
<path d="M7073 7448 c2 -28 6 -33 30 -34 25 -1 27 2 26 35 -1 36 -1 36 -8 6
-9 -42 -38 -45 -45 -6 l-6 31 3 -32z"/>
<path d="M7150 7466 c-23 -28 17 -73 42 -48 8 8 5 9 -9 6 -12 -3 -24 -1 -27 5
-5 7 3 11 19 11 20 0 26 4 23 17 -4 23 -31 28 -48 9z m35 -6 c3 -5 -3 -10 -15
-10 -12 0 -18 5 -15 10 3 6 10 10 15 10 5 0 12 -4 15 -10z"/>
<path d="M7335 7470 c-8 -14 3 -30 21 -30 8 0 14 -5 14 -11 0 -7 -9 -9 -21 -6
-16 4 -19 3 -11 -5 12 -12 42 -4 42 13 0 6 -9 13 -20 16 -11 3 -20 10 -20 15
0 6 9 8 20 5 11 -3 18 -1 14 4 -7 12 -31 11 -39 -1z"/>
<path d="M2623 7165 c0 -27 2 -40 4 -27 3 15 11 22 28 22 17 0 25 -7 28 -22 2
-13 4 0 4 27 0 28 -2 40 -4 28 -3 -16 -11 -23 -28 -23 -17 0 -25 7 -28 23 -2
12 -4 0 -4 -28z"/>
<path d="M2712 7203 c12 -3 18 -17 21 -46 l4 -42 1 43 c2 39 4 42 31 42 28 0
30 -3 34 -42 l4 -43 1 42 c2 30 7 43 20 46 9 3 -17 5 -58 5 -41 0 -67 -2 -58
-5z"/>
<path d="M2851 7163 c1 -26 4 -38 6 -26 3 13 13 23 26 25 34 5 29 42 -5 46
-27 3 -28 2 -27 -45z m42 22 c1 -5 -6 -11 -15 -13 -11 -2 -18 3 -18 13 0 17
30 18 33 0z"/>
<path d="M6513 6895 c0 -27 2 -40 4 -27 3 15 11 22 28 22 17 0 25 -7 28 -22 2
-13 4 0 4 27 0 28 -2 40 -4 28 -3 -16 -11 -23 -28 -23 -17 0 -25 7 -28 23 -2
12 -4 0 -4 -28z"/>
<path d="M6602 6933 c12 -3 18 -17 21 -46 l4 -42 1 43 c2 39 4 42 31 42 28 0
30 -3 34 -42 l4 -43 1 42 c2 30 7 43 20 46 9 3 -17 5 -58 5 -41 0 -67 -2 -58
-5z"/>
<path d="M6741 6893 c1 -26 4 -38 6 -26 3 13 13 23 26 25 34 5 29 42 -5 46
-27 3 -28 2 -27 -45z m42 22 c1 -5 -6 -11 -15 -13 -11 -2 -18 3 -18 13 0 17
30 18 33 0z"/>
<path d="M6851 6893 c1 -26 4 -38 6 -25 2 12 10 22 17 22 8 0 21 -10 30 -22 9
-13 14 -16 9 -8 -4 8 -7 28 -8 45 0 25 -4 31 -27 33 -27 3 -28 2 -27 -45z m42
22 c1 -5 -6 -11 -15 -13 -11 -2 -18 3 -18 13 0 17 30 18 33 0z"/>
<path d="M6940 6906 c-23 -28 17 -73 42 -48 8 8 5 9 -9 6 -12 -3 -24 -1 -27 5
-5 7 3 11 19 11 20 0 26 4 23 17 -4 23 -31 28 -48 9z m35 -6 c3 -5 -3 -10 -15
-10 -12 0 -18 5 -15 10 3 6 10 10 15 10 5 0 12 -4 15 -10z"/>
<path d="M7005 6910 c-8 -14 3 -30 21 -30 8 0 14 -5 14 -11 0 -7 -9 -9 -21 -6
-16 4 -19 3 -11 -5 12 -12 42 -4 42 13 0 6 -9 13 -20 16 -11 3 -20 10 -20 15
0 6 9 8 20 5 11 -3 18 -1 14 4 -7 12 -31 11 -39 -1z"/>
<path d="M7061 6865 c1 -27 4 -40 6 -29 3 15 10 20 22 17 24 -6 35 11 27 42
-5 19 -12 24 -31 23 -23 -2 -25 -6 -24 -53z m46 29 c8 -21 -13 -42 -28 -27
-13 13 -5 43 11 43 6 0 13 -7 17 -16z"/>
<path d="M7144 6906 c-11 -29 0 -51 26 -51 21 0 25 5 25 30 0 24 -5 31 -23 33
-13 2 -24 -3 -28 -12z m43 -12 c8 -21 -13 -42 -28 -27 -13 13 -5 43 11 43 6 0
13 -7 17 -16z"/>
<path d="M7211 6881 c1 -36 1 -36 8 -6 8 40 38 46 44 8 4 -28 4 -28 3 2 -1 26
-5 30 -28 31 -26 1 -28 -2 -27 -35z"/>
<path d="M7285 6910 c-8 -14 3 -30 21 -30 8 0 14 -5 14 -11 0 -7 -9 -9 -21 -6
-16 4 -19 3 -11 -5 12 -12 42 -4 42 13 0 6 -9 13 -20 16 -11 3 -20 10 -20 15
0 6 9 8 20 5 11 -3 18 -1 14 4 -7 12 -31 11 -39 -1z"/>
<path d="M7350 6906 c-23 -28 17 -73 42 -48 8 8 5 9 -9 6 -12 -3 -24 -1 -27 5
-5 7 3 11 19 11 20 0 26 4 23 17 -4 23 -31 28 -48 9z m35 -6 c3 -5 -3 -10 -15
-10 -12 0 -18 5 -15 10 3 6 10 10 15 10 5 0 12 -4 15 -10z"/>
<path d="M7425 6910 c-8 -14 3 -30 21 -30 8 0 14 -5 14 -11 0 -7 -9 -9 -21 -6
-16 4 -19 3 -11 -5 12 -12 42 -4 42 13 0 6 -9 13 -20 16 -11 3 -20 10 -20 15
0 6 9 8 20 5 11 -3 18 -1 14 4 -7 12 -31 11 -39 -1z"/>
<path d="M6230 6880 c0 -6 47 -10 120 -10 73 0 120 4 120 10 0 6 -47 10 -120
10 -73 0 -120 -4 -120 -10z"/>
<path d="M3690 5400 l0 -710 1260 0 1260 0 0 220 0 220 120 0 c73 0 120 4 120
10 0 6 -47 10 -120 10 l-120 0 0 480 0 480 -1260 0 -1260 0 0 -710z m2500 0
l0 -690 -1240 0 -1240 0 0 690 0 690 1240 0 1240 0 0 -690z"/>
<path d="M4781 5963 c1 -26 4 -38 6 -26 3 13 13 23 26 25 34 5 29 42 -5 46
-27 3 -28 2 -27 -45z m42 22 c1 -5 -6 -11 -15 -13 -11 -2 -18 3 -18 13 0 17
30 18 33 0z"/>
<path d="M4855 5981 c-3 -7 0 -8 9 -5 8 3 21 2 28 -2 9 -6 5 -10 -12 -14 -35
-8 -32 -35 3 -36 26 -1 28 2 25 30 -2 23 -9 32 -25 34 -11 2 -24 -2 -28 -7z
m40 -41 c-3 -5 -13 -10 -21 -10 -8 0 -14 5 -14 10 0 6 9 10 21 10 11 0 17 -4
14 -10z"/>
<path d="M4921 5950 c1 -27 3 -29 6 -10 2 14 11 30 20 37 13 10 13 12 -6 10
-17 -1 -21 -7 -20 -37z"/>
<path d="M4975 5980 c-8 -14 3 -30 21 -30 8 0 14 -5 14 -11 0 -7 -9 -9 -21 -6
-16 4 -19 3 -11 -5 12 -12 42 -4 42 13 0 6 -9 13 -20 16 -11 3 -20 10 -20 15
0 6 9 8 20 5 11 -3 18 -1 14 4 -7 12 -31 11 -39 -1z"/>
<path d="M5040 5976 c-23 -28 17 -73 42 -48 8 8 5 9 -9 6 -12 -3 -24 -1 -27 5
-5 7 3 11 19 11 20 0 26 4 23 17 -4 23 -31 28 -48 9z m35 -6 c3 -5 -3 -10 -15
-10 -12 0 -18 5 -15 10 3 6 10 10 15 10 5 0 12 -4 15 -10z"/>
<path d="M5101 5950 c1 -27 3 -29 6 -10 2 14 11 30 20 37 13 10 13 12 -6 10
-17 -1 -21 -7 -20 -37z"/>
<path d="M3840 5530 l0 -340 28 -11 c15 -6 62 -20 104 -31 51 -14 78 -26 81
-38 4 -14 40 -28 180 -67 9 -2 17 -11 17 -18 0 -18 130 -60 247 -80 110 -19
306 -19 417 0 48 8 155 37 239 64 84 27 194 56 246 65 173 29 364 18 530 -31
47 -14 94 -28 104 -30 16 -5 17 16 17 341 l0 346 -99 0 -100 0 -3 43 -3 42
-102 3 -103 3 0 39 0 40 -900 0 -900 0 0 -340z m1780 295 l0 -35 -785 0 -785
0 0 -321 0 -321 -32 7 c-18 3 -61 15 -95 27 l-63 20 0 329 0 329 880 0 880 0
0 -35z m210 -90 l0 -35 -790 0 -790 0 0 -320 0 -319 -32 6 c-18 3 -60 15 -93
27 l-60 21 -3 315 c-1 173 0 320 3 327 3 10 186 13 885 13 l880 0 0 -35z m200
-379 l0 -325 -52 18 c-115 39 -228 56 -383 56 -173 0 -247 -13 -455 -80 -74
-24 -157 -48 -185 -54 -103 -23 -241 -31 -352 -20 -111 10 -136 15 -260 51
l-73 21 0 328 0 329 880 0 880 0 0 -324z"/>
<path d="M4503 5400 c0 -25 2 -35 4 -22 2 12 2 32 0 45 -2 12 -4 2 -4 -23z"/>
<path d="M4923 5400 c0 -25 2 -35 4 -22 2 12 2 32 0 45 -2 12 -4 2 -4 -23z"/>
<path d="M4441 5393 c1 -21 3 -31 6 -22 2 10 13 19 25 22 25 7 19 31 -10 35
-19 3 -22 -1 -21 -35z m39 17 c0 -5 -7 -10 -15 -10 -8 0 -15 5 -15 10 0 6 7
10 15 10 8 0 15 -4 15 -10z"/>
<path d="M4861 5393 c1 -21 3 -31 6 -22 2 10 13 19 25 22 25 7 19 31 -10 35
-19 3 -22 -1 -21 -35z m39 17 c0 -5 -7 -10 -15 -10 -8 0 -15 5 -15 10 0 6 7
10 15 10 8 0 15 -4 15 -10z"/>
<path d="M5118 5418 c-8 -24 4 -58 21 -57 10 0 11 2 4 6 -15 5 -17 30 -4 35 5
2 3 8 -4 15 -10 10 -14 10 -17 1z"/>
<path d="M5322 5393 c-1 -23 -8 -44 -14 -46 -10 -4 -10 -6 0 -6 17 -1 24 20
19 61 -3 30 -4 30 -5 -9z"/>
<path d="M5355 5420 c-8 -14 3 -30 21 -30 8 0 14 -5 14 -11 0 -7 -9 -9 -21 -6
-16 4 -19 3 -11 -5 12 -12 42 -4 42 13 0 6 -9 13 -20 16 -11 3 -20 10 -20 15
0 6 9 8 20 5 11 -3 18 -1 14 4 -7 12 -31 11 -39 -1z"/>
<path d="M4523 5391 c1 -14 9 -26 17 -28 10 -3 11 -2 4 4 -7 4 -14 17 -17 28
-5 16 -5 15 -4 -4z"/>
<path d="M4562 5385 c0 -16 2 -22 5 -12 2 9 2 23 0 30 -3 6 -5 -1 -5 -18z"/>
<path d="M4594 5395 c-8 -19 3 -35 24 -36 14 0 13 -2 -3 -10 l-20 -9 20 3 c15
1 21 11 23 35 3 27 0 32 -18 32 -11 0 -23 -7 -26 -15z m36 -10 c0 -8 -7 -15
-15 -15 -8 0 -15 7 -15 15 0 8 7 15 15 15 8 0 15 -7 15 -15z"/>
<path d="M4652 5385 c0 -16 2 -22 5 -12 2 9 2 23 0 30 -3 6 -5 -1 -5 -18z"/>
<path d="M4682 5385 c0 -16 2 -22 5 -12 2 9 2 23 0 30 -3 6 -5 -1 -5 -18z"/>
<path d="M4706 5403 c7 -4 14 -17 17 -28 5 -16 5 -15 4 4 -1 14 -9 26 -17 28
-10 3 -11 2 -4 -4z"/>
<path d="M4745 5400 c-3 -6 2 -13 11 -17 16 -6 16 -7 -2 -15 -19 -8 -19 -8 0
-5 25 3 33 27 9 28 -16 0 -16 1 2 9 16 7 17 9 3 9 -9 1 -20 -4 -23 -9z"/>
<path d="M4946 5403 c7 -4 14 -17 17 -28 5 -16 5 -15 4 4 -1 14 -9 26 -17 28
-10 3 -11 2 -4 -4z"/>
<path d="M5014 5402 c19 -8 19 -9 -3 -15 -23 -6 -21 -27 2 -27 7 0 6 4 -3 10
-13 8 -13 10 2 10 9 0 19 -6 22 -12 3 -7 4 -2 3 12 -1 16 -9 26 -22 27 -19 3
-19 3 -1 -5z"/>
<path d="M5052 5385 c0 -16 2 -22 5 -12 2 9 2 23 0 30 -3 6 -5 -1 -5 -18z"/>
<path d="M5076 5403 c7 -4 14 -17 17 -28 5 -16 5 -15 4 4 -1 14 -9 26 -17 28
-10 3 -11 2 -4 -4z"/>
<path d="M5164 5395 c-4 -9 -2 -21 4 -27 15 -15 44 -1 40 19 -4 23 -36 29 -44
8z m36 -10 c0 -8 -7 -15 -15 -15 -8 0 -15 7 -15 15 0 8 7 15 15 15 8 0 15 -7
15 -15z"/>
<path d="M5222 5385 c0 -16 2 -22 5 -12 2 9 2 23 0 30 -3 6 -5 -1 -5 -18z"/>
<path d="M5247 5402 c6 -4 13 -16 16 -27 4 -18 5 -18 6 3 1 27 28 29 34 2 4
-17 4 -16 3 2 -1 19 -7 23 -35 25 -19 1 -30 -2 -24 -5z"/>
<path d="M6493 5735 c0 -27 2 -40 4 -27 3 15 11 22 28 22 17 0 25 -7 28 -22 2
-13 4 0 4 27 0 28 -2 40 -4 28 -3 -16 -11 -23 -28 -23 -17 0 -25 7 -28 23 -2
12 -4 0 -4 -28z"/>
<path d="M6582 5773 c12 -3 18 -17 21 -46 l4 -42 1 43 c2 39 4 42 31 42 28 0
30 -3 34 -42 l4 -43 1 42 c2 30 7 43 20 46 9 3 -17 5 -58 5 -41 0 -67 -2 -58
-5z"/>
<path d="M6721 5733 c1 -26 4 -38 6 -26 3 13 13 23 26 25 34 5 29 42 -5 46
-27 3 -28 2 -27 -45z m42 22 c1 -5 -6 -11 -15 -13 -11 -2 -18 3 -18 13 0 17
30 18 33 0z"/>
<path d="M6831 5733 c1 -26 4 -38 6 -25 2 12 10 22 17 22 8 0 21 -10 30 -22 9
-13 14 -16 9 -8 -4 8 -7 28 -8 45 0 25 -4 31 -27 33 -27 3 -28 2 -27 -45z m42
22 c1 -5 -6 -11 -15 -13 -11 -2 -18 3 -18 13 0 17 30 18 33 0z"/>
<path d="M6263 5747 c-24 -12 -43 -24 -43 -27 0 -10 87 -49 94 -42 4 3 -4 12
-16 19 -20 11 -12 12 65 13 51 0 87 4 87 10 0 6 -34 10 -82 10 -71 0 -79 2
-63 13 31 23 2 26 -42 4z"/>
<path d="M6920 5746 c-23 -28 17 -73 42 -48 8 8 5 9 -9 6 -12 -3 -24 -1 -27 5
-5 7 3 11 19 11 20 0 26 4 23 17 -4 23 -31 28 -48 9z m35 -6 c3 -5 -3 -10 -15
-10 -12 0 -18 5 -15 10 3 6 10 10 15 10 5 0 12 -4 15 -10z"/>
<path d="M6985 5750 c-8 -14 3 -30 21 -30 8 0 14 -5 14 -11 0 -7 -9 -9 -21 -6
-16 4 -19 3 -11 -5 12 -12 42 -4 42 13 0 6 -9 13 -20 16 -11 3 -20 10 -20 15
0 6 9 8 20 5 11 -3 18 -1 14 4 -7 12 -31 11 -39 -1z"/>
<path d="M7041 5705 c1 -27 4 -40 6 -29 3 15 10 20 22 17 24 -6 35 11 27 42
-5 19 -12 24 -31 23 -23 -2 -25 -6 -24 -53z m46 29 c8 -21 -13 -42 -28 -27
-13 13 -5 43 11 43 6 0 13 -7 17 -16z"/>
<path d="M7124 5746 c-11 -29 0 -51 26 -51 21 0 25 5 25 30 0 24 -5 31 -23 33
-13 2 -24 -3 -28 -12z m43 -12 c8 -21 -13 -42 -28 -27 -13 13 -5 43 11 43 6 0
13 -7 17 -16z"/>
<path d="M7191 5721 c1 -36 1 -36 8 -6 8 40 38 46 44 8 4 -28 4 -28 3 2 -1 26
-5 30 -28 31 -26 1 -28 -2 -27 -35z"/>
<path d="M7265 5750 c-8 -14 3 -30 21 -30 8 0 14 -5 14 -11 0 -7 -9 -9 -21 -6
-16 4 -19 3 -11 -5 12 -12 42 -4 42 13 0 6 -9 13 -20 16 -11 3 -20 10 -20 15
0 6 9 8 20 5 11 -3 18 -1 14 4 -7 12 -31 11 -39 -1z"/>
<path d="M7330 5746 c-23 -28 17 -73 42 -48 8 8 5 9 -9 6 -12 -3 -24 -1 -27 5
-5 7 3 11 19 11 20 0 26 4 23 17 -4 23 -31 28 -48 9z m35 -6 c3 -5 -3 -10 -15
-10 -12 0 -18 5 -15 10 3 6 10 10 15 10 5 0 12 -4 15 -10z"/>
<path d="M7405 5750 c-8 -14 3 -30 21 -30 8 0 14 -5 14 -11 0 -7 -9 -9 -21 -6
-16 4 -19 3 -11 -5 12 -12 42 -4 42 13 0 6 -9 13 -20 16 -11 3 -20 10 -20 15
0 6 9 8 20 5 11 -3 18 -1 14 4 -7 12 -31 11 -39 -1z"/>
<path d="M7090 5192 c0 -13 -7 -18 -22 -18 -19 1 -23 -4 -23 -29 0 -26 4 -30
28 -31 26 -1 27 1 27 47 0 27 -2 49 -5 49 -3 0 -5 -8 -5 -18z m-3 -38 c8 -21
-13 -42 -28 -27 -13 13 -5 43 11 43 6 0 13 -7 17 -16z"/>
<path d="M6497 5193 c-15 -14 -6 -34 19 -43 29 -12 22 -34 -9 -26 -14 3 -17 2
-10 -5 16 -16 47 -7 51 14 2 11 -6 20 -23 27 -29 11 -24 35 6 27 11 -3 17 -1
13 4 -6 10 -38 12 -47 2z"/>
<path d="M6568 5187 c-7 -21 6 -70 20 -73 7 -1 8 0 2 3 -12 6 -13 50 -1 55 5
2 3 8 -4 15 -10 9 -14 9 -17 0z"/>
<path d="M6797 5185 c-4 -8 -14 -11 -25 -8 -22 5 -37 -23 -26 -51 7 -17 29
-22 38 -7 3 5 -2 8 -12 7 -11 -1 -17 6 -17 19 0 30 39 27 45 -4 3 -13 11 -26
18 -27 7 -1 8 0 2 3 -12 6 -13 50 -1 55 5 2 3 8 -4 15 -10 10 -14 9 -18 -2z"/>
<path d="M7160 5155 c0 -40 2 -45 23 -45 29 0 47 18 47 45 0 27 -18 45 -47 45
-21 0 -23 -5 -23 -45z m55 0 c0 -23 -5 -31 -22 -33 -20 -3 -23 1 -23 33 0 32
3 36 23 33 17 -2 22 -10 22 -33z"/>
<path d="M7318 5187 c-7 -21 6 -70 20 -73 7 -1 8 0 2 3 -12 6 -13 50 -1 55 5
2 3 8 -4 15 -10 9 -14 9 -17 0z"/>
<path d="M6621 5140 c1 -27 3 -29 6 -10 2 14 11 30 20 37 13 10 13 12 -6 10
-17 -1 -21 -7 -20 -37z"/>
<path d="M6673 5148 c2 -28 6 -33 30 -34 25 -1 27 2 26 35 -1 36 -1 36 -8 6
-9 -42 -38 -45 -45 -6 l-6 31 3 -32z"/>
<path d="M6853 5148 c2 -28 6 -33 30 -34 25 -1 27 2 26 35 -1 36 -1 36 -8 6
-9 -42 -38 -45 -45 -6 l-6 31 3 -32z"/>
<path d="M6921 5140 c1 -27 3 -29 6 -10 2 14 11 30 20 37 13 10 13 12 -6 10
-17 -1 -21 -7 -20 -37z"/>
<path d="M6980 5166 c-23 -28 17 -73 42 -48 8 8 5 9 -9 6 -12 -3 -24 -1 -27 5
-5 7 3 11 19 11 20 0 26 4 23 17 -4 23 -31 28 -48 9z m35 -6 c3 -5 -3 -10 -15
-10 -12 0 -18 5 -15 10 3 6 10 10 15 10 5 0 12 -4 15 -10z"/>
<path d="M7245 5171 c-3 -7 0 -8 9 -5 8 3 21 2 28 -2 9 -6 5 -10 -12 -14 -35
-8 -32 -35 3 -36 26 -1 28 2 25 30 -2 23 -9 32 -25 34 -11 2 -24 -2 -28 -7z
m40 -41 c-3 -5 -13 -10 -21 -10 -8 0 -14 5 -14 10 0 6 9 10 21 10 11 0 17 -4
14 -10z"/>
<path d="M7365 5171 c-3 -7 0 -8 9 -5 8 3 21 2 28 -2 9 -6 5 -10 -12 -14 -35
-8 -32 -35 3 -36 26 -1 28 2 25 30 -2 23 -9 32 -25 34 -11 2 -24 -2 -28 -7z
m40 -41 c-3 -5 -13 -10 -21 -10 -8 0 -14 5 -14 10 0 6 9 10 21 10 11 0 17 -4
14 -10z"/>
<path d="M3690 3500 l0 -710 1260 0 1260 0 0 85 0 85 265 0 c170 0 265 4 265
10 0 6 -95 10 -265 10 l-265 0 0 615 0 615 -1260 0 -1260 0 0 -710z m2500 86
c0 -474 -3 -606 -12 -610 -10 -5 -10 -7 0 -12 8 -4 12 -30 12 -80 l0 -74
-1240 0 -1240 0 0 690 0 690 1240 0 1240 0 0 -604z"/>
<path d="M5043 4070 c0 -30 2 -43 4 -27 2 15 2 39 0 55 -2 15 -4 2 -4 -28z"/>
<path d="M4750 4096 c-25 -31 13 -97 40 -70 8 8 4 10 -12 10 -19 -1 -23 4 -23
29 0 24 4 30 22 29 12 0 20 3 17 8 -8 13 -30 9 -44 -6z"/>
<path d="M4821 4051 c1 -36 1 -36 8 -6 5 23 12 30 31 32 39 3 60 -8 30 -16
-35 -9 -32 -36 3 -37 26 -1 28 2 25 30 -3 30 -5 31 -50 32 l-48 0 1 -35z m84
-11 c-3 -5 -13 -10 -21 -10 -8 0 -14 5 -14 10 0 6 9 10 21 10 11 0 17 -4 14
-10z"/>
<path d="M4936 4070 c12 -46 21 -56 29 -30 l7 23 13 -23 c12 -23 12 -23 24 10
6 18 9 35 7 38 -3 2 -8 -8 -12 -23 l-7 -28 -12 29 -12 29 -8 -29 -8 -29 -13
29 c-12 25 -13 26 -8 4z"/>
<path d="M5070 4076 c-23 -28 17 -73 42 -48 8 8 5 9 -9 6 -12 -3 -24 -1 -27 5
-5 7 3 11 19 11 20 0 26 4 23 17 -4 23 -31 28 -48 9z m35 -6 c3 -5 -3 -10 -15
-10 -12 0 -18 5 -15 10 3 6 10 10 15 10 5 0 12 -4 15 -10z"/>
<path d="M5141 4050 c1 -27 3 -29 6 -10 2 14 11 30 20 37 13 10 13 12 -6 10
-17 -1 -21 -7 -20 -37z"/>
<path d="M3840 3630 l0 -340 28 -11 c15 -6 62 -20 104 -31 51 -14 78 -26 81
-38 4 -14 40 -28 180 -67 9 -2 17 -11 17 -18 0 -18 130 -60 247 -80 110 -19
306 -19 417 0 48 8 155 37 239 64 84 27 194 56 246 65 173 29 364 18 530 -31
47 -14 94 -28 104 -30 16 -5 17 16 17 341 l0 346 -99 0 -100 0 -3 43 -3 42
-102 3 -103 3 0 39 0 40 -900 0 -900 0 0 -340z m1780 295 l0 -35 -785 0 -785
0 0 -321 0 -321 -32 7 c-18 3 -61 15 -95 27 l-63 20 0 329 0 329 880 0 880 0
0 -35z m210 -90 l0 -35 -790 0 -790 0 0 -320 0 -319 -32 6 c-18 3 -60 15 -93
27 l-60 21 -3 315 c-1 173 0 320 3 327 3 10 186 13 885 13 l880 0 0 -35z m200
-379 l0 -325 -52 18 c-115 39 -228 56 -383 56 -173 0 -247 -13 -455 -80 -74
-24 -157 -48 -185 -54 -103 -23 -241 -31 -352 -20 -111 10 -136 15 -260 51
l-73 21 0 328 0 329 880 0 880 0 0 -324z"/>
<path d="M4833 3660 c0 -25 2 -35 4 -22 2 12 2 32 0 45 -2 12 -4 2 -4 -23z"/>
<path d="M4761 3653 c1 -21 3 -31 6 -22 2 10 13 19 25 22 25 7 19 31 -10 35
-19 3 -22 -1 -21 -35z m39 17 c0 -5 -7 -10 -15 -10 -8 0 -15 5 -15 10 0 6 7
10 15 10 8 0 15 -4 15 -10z"/>
<path d="M4853 3651 c1 -14 9 -26 17 -28 10 -3 11 -2 4 4 -7 4 -14 17 -17 28
-5 16 -5 15 -4 -4z"/>
<path d="M4892 3645 c0 -16 2 -22 5 -12 2 9 2 23 0 30 -3 6 -5 -1 -5 -18z"/>
<path d="M4924 3655 c-8 -19 3 -35 24 -36 14 0 13 -2 -3 -10 l-20 -9 20 3 c15
1 21 11 23 35 3 27 0 32 -18 32 -11 0 -23 -7 -26 -15z m36 -10 c0 -8 -7 -15
-15 -15 -8 0 -15 7 -15 15 0 8 7 15 15 15 8 0 15 -7 15 -15z"/>
<path d="M4982 3645 c0 -16 2 -22 5 -12 2 9 2 23 0 30 -3 6 -5 -1 -5 -18z"/>
<path d="M5002 3645 c0 -16 2 -22 5 -12 2 9 2 23 0 30 -3 6 -5 -1 -5 -18z"/>
<path d="M5026 3663 c7 -4 14 -17 17 -28 5 -16 5 -15 4 4 -1 14 -9 26 -17 28
-10 3 -11 2 -4 -4z"/>
<path d="M5075 3660 c-3 -6 2 -13 11 -17 16 -6 16 -7 -2 -15 -19 -8 -19 -8 0
-5 25 3 33 27 9 28 -16 0 -16 1 2 9 16 7 17 9 3 9 -9 1 -20 -4 -23 -9z"/>
<path d="M4811 3552 c-1 -39 1 -43 21 -40 30 4 37 38 9 45 -11 3 -22 12 -24
22 -3 9 -5 -3 -6 -27z m39 -17 c0 -8 -7 -15 -15 -15 -8 0 -15 7 -15 15 0 8 7
15 15 15 8 0 15 -7 15 -15z"/>
<path d="M4681 3543 c1 -21 3 -30 6 -20 2 9 7 17 10 17 4 0 15 -8 26 -17 14
-13 18 -13 11 -3 -5 8 -9 24 -9 35 0 13 -8 21 -22 23 -21 3 -23 -1 -22 -35z
m39 17 c0 -5 -7 -10 -15 -10 -8 0 -15 5 -15 10 0 6 7 10 15 10 8 0 15 -4 15
-10z"/>
<path d="M4937 3567 c-2 -6 -14 -12 -28 -12 -17 0 -24 -6 -24 -20 0 -29 33
-31 44 -3 l10 23 0 -22 c1 -15 7 -23 19 -22 10 0 12 3 5 6 -15 5 -17 30 -4 35
5 2 3 8 -4 15 -11 10 -14 10 -18 0z m-17 -32 c0 -8 -7 -15 -15 -15 -8 0 -15 7
-15 15 0 8 7 15 15 15 8 0 15 -7 15 -15z"/>
<path d="M5068 3568 c-8 -24 4 -58 21 -57 10 0 11 2 4 6 -15 5 -17 30 -4 35 5
2 3 8 -4 15 -10 10 -14 10 -17 1z"/>
<path d="M5151 3558 c-10 -16 -15 -18 -29 -7 -14 11 -15 11 -5 -1 10 -11 10
-17 0 -29 -10 -14 -10 -14 5 -3 11 9 18 10 23 2 3 -5 16 -10 28 -9 12 0 16 3
10 6 -15 5 -17 30 -4 35 5 2 3 8 -3 14 -10 9 -16 7 -25 -8z m9 -24 c0 -8 -5
-12 -10 -9 -6 4 -8 11 -5 16 9 14 15 11 15 -7z"/>
<path d="M4754 3545 c-4 -9 -2 -21 4 -27 15 -15 44 -1 40 19 -4 23 -36 29 -44
8z m36 -10 c0 -8 -7 -15 -15 -15 -8 0 -15 7 -15 15 0 8 7 15 15 15 8 0 15 -7
15 -15z"/>
<path d="M4985 3550 c-3 -6 2 -13 11 -17 16 -6 16 -7 -2 -15 -19 -8 -19 -8 0
-5 25 3 33 27 9 28 -16 0 -16 1 2 9 16 7 17 9 3 9 -9 1 -20 -4 -23 -9z"/>
<path d="M5043 3450 c0 -25 2 -35 4 -22 2 12 2 32 0 45 -2 12 -4 2 -4 -23z"/>
<path d="M5110 3476 c0 -7 -9 -16 -21 -19 -28 -7 -21 -41 9 -45 20 -3 22 1 22
37 0 23 -2 41 -5 41 -3 0 -5 -6 -5 -14z m0 -41 c0 -8 -7 -15 -15 -15 -8 0 -15
7 -15 15 0 8 7 15 15 15 8 0 15 -7 15 -15z"/>
<path d="M4661 3443 c1 -21 3 -30 6 -20 5 20 16 22 31 4 6 -7 26 -13 44 -14
30 -1 31 -1 8 7 -25 8 -25 8 -2 9 27 1 25 24 -1 29 -10 2 -21 -6 -26 -20 -10
-23 -13 -19 -15 17 -1 13 -9 21 -23 23 -21 3 -23 -1 -22 -35z m39 17 c0 -5 -7
-10 -15 -10 -8 0 -15 5 -15 10 0 6 7 10 15 10 8 0 15 -4 15 -10z m57 -16 c-3
-3 -12 -4 -19 -1 -8 3 -5 6 6 6 11 1 17 -2 13 -5z"/>
<path d="M4880 3445 c0 -32 3 -36 23 -33 17 2 22 10 22 33 0 23 -5 31 -22 33
-20 3 -23 -1 -23 -33z m40 15 c0 -5 -7 -10 -15 -10 -8 0 -15 5 -15 10 0 6 7
10 15 10 8 0 15 -4 15 -10z m0 -30 c0 -5 -7 -10 -15 -10 -8 0 -15 5 -15 10 0
6 7 10 15 10 8 0 15 -4 15 -10z"/>
<path d="M4794 3445 c-7 -18 3 -35 21 -35 7 0 16 -6 18 -12 3 -7 6 4 6 25 1
31 -2 37 -19 37 -11 0 -23 -7 -26 -15z m36 -10 c0 -8 -7 -15 -15 -15 -8 0 -15
7 -15 15 0 8 7 15 15 15 8 0 15 -7 15 -15z"/>
<path d="M4963 3441 c1 -14 9 -26 17 -28 10 -3 11 -2 4 4 -7 4 -14 17 -17 28
-5 16 -5 15 -4 -4z"/>
<path d="M5002 3435 c0 -16 2 -22 5 -12 2 9 2 23 0 30 -3 6 -5 -1 -5 -18z"/>
<path d="M5022 3435 c0 -16 2 -22 5 -12 2 9 2 23 0 30 -3 6 -5 -1 -5 -18z"/>
<path d="M5134 3446 c-8 -22 4 -36 29 -35 20 1 20 2 -3 9 -25 8 -25 8 -2 9 14
1 22 6 20 14 -7 18 -37 21 -44 3z m33 -2 c-3 -3 -12 -4 -19 -1 -8 3 -5 6 6 6
11 1 17 -2 13 -5z"/>
<path d="M5201 3433 c1 -22 2 -23 6 -8 3 11 10 23 17 27 7 5 5 8 -6 8 -13 0
-18 -7 -17 -27z"/>
<path d="M4775 3370 c-8 -14 3 -30 21 -30 8 0 14 -5 14 -11 0 -7 -9 -9 -21 -6
-16 4 -19 3 -11 -5 12 -12 42 -4 42 13 0 6 -9 13 -20 16 -11 3 -20 10 -20 15
0 6 9 8 20 5 11 -3 18 -1 14 4 -7 12 -31 11 -39 -1z"/>
<path d="M4838 3368 c-8 -24 4 -58 21 -57 10 0 11 2 4 6 -15 5 -17 30 -4 35 5
2 3 8 -4 15 -10 10 -14 10 -17 1z"/>
<path d="M4948 3368 c-8 -24 4 -58 21 -57 10 0 11 2 4 6 -15 5 -17 30 -4 35 5
2 3 8 -4 15 -10 10 -14 10 -17 1z"/>
<path d="M4904 3352 c19 -8 19 -9 -3 -15 -23 -6 -21 -27 2 -27 7 0 6 4 -3 10
-13 8 -13 10 2 10 9 0 19 -6 22 -12 3 -7 4 -2 3 12 -1 16 -9 26 -22 27 -19 3
-19 3 -1 -5z"/>
<path d="M4994 3346 c-8 -22 4 -36 29 -35 20 1 20 2 -3 9 -25 8 -25 8 -2 9 14
1 22 6 20 14 -7 18 -37 21 -44 3z m33 -2 c-3 -3 -12 -4 -19 -1 -8 3 -5 6 6 6
11 1 17 -2 13 -5z"/>
<path d="M7110 3952 c0 -13 -7 -18 -22 -18 -19 1 -23 -4 -23 -29 0 -26 4 -30
28 -31 26 -1 27 1 27 47 0 27 -2 49 -5 49 -3 0 -5 -8 -5 -18z m-3 -38 c8 -21
-13 -42 -28 -27 -13 13 -5 43 11 43 6 0 13 -7 17 -16z"/>
<path d="M6517 3953 c-15 -14 -6 -34 19 -43 29 -12 22 -34 -9 -26 -14 3 -17 2
-10 -5 16 -16 47 -7 51 14 2 11 -6 20 -23 27 -29 11 -24 35 6 27 11 -3 17 -1
13 4 -6 10 -38 12 -47 2z"/>
<path d="M6588 3947 c-7 -21 6 -70 20 -73 7 -1 8 0 2 3 -12 6 -13 50 -1 55 5
2 3 8 -4 15 -10 9 -14 9 -17 0z"/>
<path d="M6817 3945 c-4 -8 -14 -11 -25 -8 -22 5 -37 -23 -26 -51 7 -17 29
-22 38 -7 3 5 -2 8 -12 7 -11 -1 -17 6 -17 19 0 30 39 27 45 -4 3 -13 11 -26
18 -27 7 -1 8 0 2 3 -12 6 -13 50 -1 55 5 2 3 8 -4 15 -10 10 -14 9 -18 -2z"/>
<path d="M7180 3915 c0 -40 2 -45 23 -45 29 0 47 18 47 45 0 27 -18 45 -47 45
-21 0 -23 -5 -23 -45z m55 0 c0 -23 -5 -31 -22 -33 -20 -3 -23 1 -23 33 0 32
3 36 23 33 17 -2 22 -10 22 -33z"/>
<path d="M7338 3947 c-7 -21 6 -70 20 -73 7 -1 8 0 2 3 -12 6 -13 50 -1 55 5
2 3 8 -4 15 -10 9 -14 9 -17 0z"/>
<path d="M6273 3927 c-24 -12 -43 -24 -43 -27 0 -10 87 -49 94 -42 4 3 -4 12
-16 19 -20 11 -11 12 70 13 54 0 92 4 92 10 0 6 -36 10 -87 10 -75 0 -84 2
-68 13 31 23 2 26 -42 4z"/>
<path d="M6641 3900 c1 -27 3 -29 6 -10 2 14 11 30 20 37 13 10 13 12 -6 10
-17 -1 -21 -7 -20 -37z"/>
<path d="M6693 3908 c2 -28 6 -33 30 -34 25 -1 27 2 26 35 -1 36 -1 36 -8 6
-9 -42 -38 -45 -45 -6 l-6 31 3 -32z"/>
<path d="M6873 3908 c2 -28 6 -33 30 -34 25 -1 27 2 26 35 -1 36 -1 36 -8 6
-9 -42 -38 -45 -45 -6 l-6 31 3 -32z"/>
<path d="M6941 3900 c1 -27 3 -29 6 -10 2 14 11 30 20 37 13 10 13 12 -6 10
-17 -1 -21 -7 -20 -37z"/>
<path d="M7000 3926 c-23 -28 17 -73 42 -48 8 8 5 9 -9 6 -12 -3 -24 -1 -27 5
-5 7 3 11 19 11 20 0 26 4 23 17 -4 23 -31 28 -48 9z m35 -6 c3 -5 -3 -10 -15
-10 -12 0 -18 5 -15 10 3 6 10 10 15 10 5 0 12 -4 15 -10z"/>
<path d="M7265 3931 c-3 -7 0 -8 9 -5 8 3 21 2 28 -2 9 -6 5 -10 -12 -14 -35
-8 -32 -35 3 -36 26 -1 28 2 25 30 -2 23 -9 32 -25 34 -11 2 -24 -2 -28 -7z
m40 -41 c-3 -5 -13 -10 -21 -10 -8 0 -14 5 -14 10 0 6 9 10 21 10 11 0 17 -4
14 -10z"/>
<path d="M7385 3931 c-3 -7 0 -8 9 -5 8 3 21 2 28 -2 9 -6 5 -10 -12 -14 -35
-8 -32 -35 3 -36 26 -1 28 2 25 30 -2 23 -9 32 -25 34 -11 2 -24 -2 -28 -7z
m40 -41 c-3 -5 -13 -10 -21 -10 -8 0 -14 5 -14 10 0 6 9 10 21 10 11 0 17 -4
14 -10z"/>
<path d="M6382 3295 c1 -46 1 -47 7 -15 6 32 8 33 15 13 4 -13 11 -23 16 -23
5 0 12 10 16 23 7 20 9 19 15 -13 6 -32 6 -31 7 15 1 45 0 48 -13 31 -8 -10
-17 -24 -20 -30 -4 -8 -6 -8 -10 0 -3 6 -12 20 -20 30 -13 17 -14 14 -13 -31z"/>
<path d="M6723 3295 c0 -27 2 -40 4 -27 3 15 11 22 28 22 17 0 25 -7 28 -22 2
-13 4 0 4 27 0 28 -2 40 -4 28 -3 -16 -11 -23 -28 -23 -17 0 -25 7 -28 23 -2
12 -4 0 -4 -28z"/>
<path d="M6812 3333 c12 -3 18 -17 21 -46 l4 -42 1 43 c2 39 4 42 31 42 28 0
30 -3 34 -42 l4 -43 1 42 c2 30 7 43 20 46 9 3 -17 5 -58 5 -41 0 -67 -2 -58
-5z"/>
<path d="M6951 3293 c1 -26 4 -38 6 -26 3 13 13 23 26 25 34 5 29 42 -5 46
-27 3 -28 2 -27 -45z m42 22 c1 -5 -6 -11 -15 -13 -11 -2 -18 3 -18 13 0 17
30 18 33 0z"/>
<path d="M7061 3293 c1 -26 4 -38 6 -25 2 12 10 22 17 22 8 0 21 -10 30 -22 9
-13 14 -16 9 -8 -4 8 -7 28 -8 45 0 25 -4 31 -27 33 -27 3 -28 2 -27 -45z m42
22 c1 -5 -6 -11 -15 -13 -11 -2 -18 3 -18 13 0 17 30 18 33 0z"/>
<path d="M7487 3327 c-2 -6 -14 -12 -27 -12 -30 0 -39 -25 -11 -32 12 -3 21
-10 21 -15 0 -6 -10 -8 -21 -5 -16 4 -19 3 -11 -5 12 -12 42 -4 42 13 0 6 -9
13 -20 16 -27 7 -25 25 3 21 14 -2 24 -12 27 -27 3 -13 11 -26 18 -27 7 -1 8
0 2 3 -12 6 -13 50 -1 55 5 2 3 8 -4 15 -11 10 -14 10 -18 0z"/>
<path d="M6494 3306 c-11 -29 0 -51 26 -51 21 0 25 5 25 30 0 24 -5 31 -23 33
-13 2 -24 -3 -28 -12z m43 -12 c8 -21 -13 -42 -28 -27 -13 13 -5 43 11 43 6 0
13 -7 17 -16z"/>
<path d="M6561 3280 c1 -27 3 -29 6 -10 2 14 11 30 20 37 13 10 13 12 -6 10
-17 -1 -21 -7 -20 -37z"/>
<path d="M6620 3306 c-23 -28 17 -73 42 -48 8 8 5 9 -9 6 -12 -3 -24 -1 -27 5
-5 7 3 11 19 11 20 0 26 4 23 17 -4 23 -31 28 -48 9z m35 -6 c3 -5 -3 -10 -15
-10 -12 0 -18 5 -15 10 3 6 10 10 15 10 5 0 12 -4 15 -10z"/>
<path d="M7150 3306 c-23 -28 17 -73 42 -48 8 8 5 9 -9 6 -12 -3 -24 -1 -27 5
-5 7 3 11 19 11 20 0 26 4 23 17 -4 23 -31 28 -48 9z m35 -6 c3 -5 -3 -10 -15
-10 -12 0 -18 5 -15 10 3 6 10 10 15 10 5 0 12 -4 15 -10z"/>
<path d="M7214 3306 c-10 -26 1 -51 21 -51 11 0 23 -9 27 -20 3 -12 6 0 7 30
1 47 -1 51 -24 53 -15 1 -28 -4 -31 -12z m43 -12 c8 -21 -13 -42 -28 -27 -13
13 -5 43 11 43 6 0 13 -7 17 -16z"/>
<path d="M7293 3288 c2 -28 6 -33 30 -34 25 -1 27 2 26 35 -1 36 -1 36 -8 6
-9 -42 -38 -45 -45 -6 l-6 31 3 -32z"/>
<path d="M7370 3306 c-23 -28 17 -73 42 -48 8 8 5 9 -9 6 -12 -3 -24 -1 -27 5
-5 7 3 11 19 11 20 0 26 4 23 17 -4 23 -31 28 -48 9z m35 -6 c3 -5 -3 -10 -15
-10 -12 0 -18 5 -15 10 3 6 10 10 15 10 5 0 12 -4 15 -10z"/>
<path d="M7545 3310 c-8 -14 3 -30 21 -30 8 0 14 -5 14 -11 0 -7 -9 -9 -21 -6
-16 4 -19 3 -11 -5 12 -12 42 -4 42 13 0 6 -9 13 -20 16 -11 3 -20 10 -20 15
0 6 9 8 20 5 11 -3 18 -1 14 4 -7 12 -31 11 -39 -1z"/>
<path d="M6220 3280 c0 -6 27 -10 60 -10 33 0 60 4 60 10 0 6 -27 10 -60 10
-33 0 -60 -4 -60 -10z"/>
<path d="M6783 2985 c0 -27 2 -38 4 -22 2 15 2 37 0 50 -2 12 -4 0 -4 -28z"/>
<path d="M6808 3017 c-7 -21 6 -70 20 -73 7 -1 8 0 2 3 -12 6 -13 50 -1 55 5
2 3 8 -4 15 -10 9 -14 9 -17 0z"/>
<path d="M6860 2996 c-23 -28 17 -73 42 -48 8 8 5 9 -9 6 -12 -3 -24 -1 -27 5
-5 7 3 11 19 11 20 0 26 4 23 17 -4 23 -31 28 -48 9z m35 -6 c3 -5 -3 -10 -15
-10 -12 0 -18 5 -15 10 3 6 10 10 15 10 5 0 12 -4 15 -10z"/>
<path d="M6931 2971 c1 -35 2 -35 8 -7 9 43 31 45 32 4 l1 -33 7 29 c9 42 29
44 34 4 l5 -33 -2 35 c-1 34 -2 35 -43 36 -43 0 -43 0 -42 -35z"/>
<path d="M7055 3000 c-8 -14 3 -30 21 -30 8 0 14 -5 14 -11 0 -7 -9 -9 -21 -6
-16 4 -19 3 -11 -5 12 -12 42 -4 42 13 0 6 -9 13 -20 16 -11 3 -20 10 -20 15
0 6 9 8 20 5 11 -3 18 -1 14 4 -7 12 -31 11 -39 -1z"/>
<path d="M7684 2995 c18 -13 -13 -15 -267 -15 -185 0 -287 -4 -287 -10 0 -6
102 -10 287 -10 243 0 284 -2 268 -13 -32 -24 -1 -26 45 -2 l44 23 -42 21
c-48 24 -77 28 -48 6z"/>
<path d="M3690 1483 l0 -728 58 -37 c31 -20 83 -49 115 -64 51 -25 57 -31 57
-59 0 -27 8 -35 68 -72 37 -22 91 -53 120 -67 45 -23 52 -30 52 -56 0 -26 8
-36 57 -67 153 -98 282 -137 453 -137 190 0 307 40 524 182 327 214 620 225
921 37 l85 -54 0 560 0 559 39 -19 c41 -21 68 -16 29 6 -19 10 19 12 225 13
158 0 247 4 247 10 0 6 -88 10 -242 10 -172 1 -238 4 -225 11 35 20 5 28 -34
9 l-39 -20 0 165 0 165 -115 0 -115 0 0 95 0 95 -120 0 -120 0 0 95 0 95
-1020 0 -1020 0 0 -727z m2030 622 l0 -85 -900 0 -900 0 0 -685 c0 -377 -2
-685 -5 -685 -10 0 -87 40 -147 77 l-58 34 0 715 0 714 1005 0 1005 0 0 -85z
m230 -190 l0 -85 -895 0 -895 0 0 -685 c0 -548 -3 -685 -13 -685 -11 0 -122
61 -184 100 l-23 15 0 712 0 713 1005 0 1005 0 0 -85z m230 -811 l0 -705 -42
26 c-73 45 -182 93 -264 117 -116 32 -277 30 -397 -6 -107 -32 -160 -58 -301
-149 -216 -138 -315 -172 -506 -172 -127 0 -141 2 -230 33 -97 34 -179 75
-237 119 l-33 24 0 703 c0 386 3 706 7 709 3 4 456 7 1005 7 l998 0 0 -706z"/>
<path d="M4620 1516 c-25 -31 13 -97 40 -70 8 8 4 10 -12 10 -19 -1 -23 4 -23
29 0 24 4 30 22 29 12 0 20 3 17 8 -8 13 -30 9 -44 -6z"/>
<path d="M4694 1496 c-11 -29 0 -51 26 -51 21 0 25 5 25 30 0 24 -5 31 -23 33
-13 2 -24 -3 -28 -12z m43 -12 c8 -21 -13 -42 -28 -27 -13 13 -5 43 11 43 6 0
13 -7 17 -16z"/>
<path d="M4761 1471 c1 -36 1 -36 8 -6 8 40 38 46 44 8 4 -28 4 -28 3 2 -1 26
-5 30 -28 31 -26 1 -28 -2 -27 -35z"/>
<path d="M4835 1500 c-8 -14 3 -30 21 -30 8 0 14 -5 14 -11 0 -7 -9 -9 -21 -6
-16 4 -19 3 -11 -5 12 -12 42 -4 42 13 0 6 -9 13 -20 16 -11 3 -20 10 -20 15
0 6 9 8 20 5 11 -3 18 -1 14 4 -7 12 -31 11 -39 -1z"/>
<path d="M4903 1478 c2 -28 6 -33 30 -34 25 -1 27 2 26 35 -1 36 -1 36 -8 6
-9 -42 -38 -45 -45 -6 l-6 31 3 -32z"/>
<path d="M4971 1471 c1 -35 2 -35 8 -7 9 43 31 45 32 4 l1 -33 7 29 c9 42 29
44 34 4 l5 -33 -2 35 c-1 34 -2 35 -43 36 -43 0 -43 0 -42 -35z"/>
<path d="M5100 1496 c-23 -28 17 -73 42 -48 8 8 5 9 -9 6 -12 -3 -24 -1 -27 5
-5 7 3 11 19 11 20 0 26 4 23 17 -4 23 -31 28 -48 9z m35 -6 c3 -5 -3 -10 -15
-10 -12 0 -18 5 -15 10 3 6 10 10 15 10 5 0 12 -4 15 -10z"/>
<path d="M5161 1470 c1 -27 3 -29 6 -10 2 14 11 30 20 37 13 10 13 12 -6 10
-17 -1 -21 -7 -20 -37z"/>
<path d="M5215 1500 c-8 -14 3 -30 21 -30 8 0 14 -5 14 -11 0 -7 -9 -9 -21 -6
-16 4 -19 3 -11 -5 12 -12 42 -4 42 13 0 6 -9 13 -20 16 -11 3 -20 10 -20 15
0 6 9 8 20 5 11 -3 18 -1 14 4 -7 12 -31 11 -39 -1z"/>
<path d="M4717 1383 c-15 -14 -6 -34 19 -43 29 -12 22 -34 -9 -26 -14 3 -17 2
-10 -5 16 -16 47 -7 51 14 2 11 -6 20 -23 27 -29 11 -24 35 6 27 11 -3 17 -1
13 4 -6 10 -38 12 -47 2z"/>
<path d="M4788 1377 c-7 -21 6 -70 20 -73 7 -1 8 0 2 3 -12 6 -13 50 -1 55 5
2 3 8 -4 15 -10 9 -14 9 -17 0z"/>
<path d="M4844 1356 c-11 -29 0 -51 26 -51 21 0 25 5 25 30 0 24 -5 31 -23 33
-13 2 -24 -3 -28 -12z m43 -12 c8 -21 -13 -42 -28 -27 -13 13 -5 43 11 43 6 0
13 -7 17 -16z"/>
<path d="M4911 1330 c1 -27 3 -29 6 -10 2 14 11 30 20 37 13 10 13 12 -6 10
-17 -1 -21 -7 -20 -37z"/>
<path d="M4965 1361 c-3 -7 0 -8 9 -5 8 3 21 2 28 -2 9 -6 5 -10 -12 -14 -35
-8 -32 -35 3 -36 26 -1 28 2 25 30 -2 23 -9 32 -25 34 -11 2 -24 -2 -28 -7z
m40 -41 c-3 -5 -13 -10 -21 -10 -8 0 -14 5 -14 10 0 6 9 10 21 10 11 0 17 -4
14 -10z"/>
<path d="M5034 1356 c-11 -28 1 -51 24 -50 12 0 21 -4 19 -10 -2 -6 -12 -10
-22 -9 -12 1 -14 -2 -7 -9 22 -22 42 0 42 45 0 38 -2 43 -25 45 -15 1 -28 -4
-31 -12z m43 -12 c8 -21 -13 -42 -28 -27 -13 13 -5 43 11 43 6 0 13 -7 17 -16z"/>
<path d="M5120 1356 c-23 -28 17 -73 42 -48 8 8 5 9 -9 6 -12 -3 -24 -1 -27 5
-5 7 3 11 19 11 20 0 26 4 23 17 -4 23 -31 28 -48 9z m35 -6 c3 -5 -3 -10 -15
-10 -12 0 -18 5 -15 10 3 6 10 10 15 10 5 0 12 -4 15 -10z"/>
<path d="M5181 1304 c0 -11 3 -14 6 -6 3 7 2 16 -1 19 -3 4 -6 -2 -5 -13z"/>
<path d="M4913 1220 c0 -30 2 -43 4 -27 2 15 2 39 0 55 -2 15 -4 2 -4 -28z"/>
<path d="M4691 1213 c1 -26 4 -38 6 -25 2 12 10 22 17 22 8 0 21 -10 30 -22 9
-13 14 -16 9 -8 -4 8 -7 28 -8 45 0 25 -4 31 -27 33 -27 3 -28 2 -27 -45z m42
22 c1 -5 -6 -11 -15 -13 -11 -2 -18 3 -18 13 0 17 30 18 33 0z"/>
<path d="M4938 1247 c-7 -21 6 -70 20 -73 7 -1 8 0 2 3 -12 6 -13 50 -1 55 5
2 3 8 -4 15 -10 9 -14 9 -17 0z"/>
<path d="M4780 1226 c-23 -28 17 -73 42 -48 8 8 5 9 -9 6 -12 -3 -24 -1 -27 5
-5 7 3 11 19 11 20 0 26 4 23 17 -4 23 -31 28 -48 9z m35 -6 c3 -5 -3 -10 -15
-10 -12 0 -18 5 -15 10 3 6 10 10 15 10 5 0 12 -4 15 -10z"/>
<path d="M4845 1231 c-3 -7 0 -8 9 -5 8 3 21 2 28 -2 9 -6 5 -10 -12 -14 -35
-8 -32 -35 3 -36 26 -1 28 2 25 30 -2 23 -9 32 -25 34 -11 2 -24 -2 -28 -7z
m40 -41 c-3 -5 -13 -10 -21 -10 -8 0 -14 5 -14 10 0 6 9 10 21 10 11 0 17 -4
14 -10z"/>
<path d="M4993 1205 c0 -22 2 -30 4 -17 2 12 2 30 0 40 -3 9 -5 -1 -4 -23z"/>
<path d="M5011 1201 c1 -35 2 -35 8 -7 9 43 31 45 32 4 l1 -33 7 29 c9 42 29
44 34 4 l5 -33 -2 35 c-1 34 -2 35 -43 36 -43 0 -43 0 -42 -35z"/>
<path d="M5140 1226 c-23 -28 17 -73 42 -48 8 8 5 9 -9 6 -12 -3 -24 -1 -27 5
-5 7 3 11 19 11 20 0 26 4 23 17 -4 23 -31 28 -48 9z m35 -6 c3 -5 -3 -10 -15
-10 -12 0 -18 5 -15 10 3 6 10 10 15 10 5 0 12 -4 15 -10z"/>
<path d="M5201 1174 c0 -11 3 -14 6 -6 3 7 2 16 -1 19 -3 4 -6 -2 -5 -13z"/>
<path d="M4483 1075 c0 -27 2 -38 4 -22 2 15 2 37 0 50 -2 12 -4 0 -4 -28z"/>
<path d="M4637 1107 c-2 -6 -14 -12 -27 -12 -30 0 -39 -25 -11 -32 12 -3 21
-10 21 -15 0 -6 -10 -8 -21 -5 -16 4 -19 3 -11 -5 12 -12 42 -4 42 13 0 6 -9
13 -20 16 -27 7 -25 25 3 21 14 -2 24 -12 27 -27 3 -13 11 -26 18 -27 7 -1 8
0 2 3 -12 6 -13 50 -1 55 5 2 3 8 -4 15 -11 10 -14 10 -18 0z"/>
<path d="M5067 1106 c-3 -7 -18 -11 -36 -10 -30 2 -31 0 -30 -34 1 -36 1 -36
8 -7 9 43 39 45 44 3 l4 -33 3 35 2 35 7 -29 c3 -16 12 -31 19 -32 7 -1 8 0 2
3 -12 6 -13 50 -1 55 5 2 3 8 -4 15 -10 9 -14 9 -18 -1z"/>
<path d="M5188 1107 c-7 -21 6 -70 20 -73 7 -1 8 0 2 3 -12 6 -13 50 -1 55 5
2 3 8 -4 15 -10 9 -14 9 -17 0z"/>
<path d="M4511 1061 c1 -36 1 -36 8 -6 8 40 38 46 44 8 4 -28 4 -28 3 2 -1 26
-5 30 -28 31 -26 1 -28 -2 -27 -35z"/>
<path d="M4691 1060 c1 -27 3 -29 6 -10 2 14 11 30 20 37 13 10 13 12 -6 10
-17 -1 -21 -7 -20 -37z"/>
<path d="M4743 1068 c2 -28 6 -33 30 -34 25 -1 27 2 26 35 -1 36 -1 36 -8 6
-9 -42 -38 -45 -45 -6 l-6 31 3 -32z"/>
<path d="M4811 1061 c1 -35 2 -35 8 -7 9 43 31 45 32 4 l1 -33 7 29 c9 42 29
44 34 4 l5 -33 -2 35 c-1 34 -2 35 -43 36 -43 0 -43 0 -42 -35z"/>
<path d="M4940 1086 c-23 -28 17 -73 42 -48 8 8 5 9 -9 6 -12 -3 -24 -1 -27 5
-5 7 3 11 19 11 20 0 26 4 23 17 -4 23 -31 28 -48 9z m35 -6 c3 -5 -3 -10 -15
-10 -12 0 -18 5 -15 10 3 6 10 10 15 10 5 0 12 -4 15 -10z"/>
<path d="M5125 1091 c-3 -7 0 -8 9 -5 8 3 21 2 28 -2 9 -6 5 -10 -12 -14 -35
-8 -32 -35 3 -36 26 -1 28 2 25 30 -2 23 -9 32 -25 34 -11 2 -24 -2 -28 -7z
m40 -41 c-3 -5 -13 -10 -21 -10 -8 0 -14 5 -14 10 0 6 9 10 21 10 11 0 17 -4
14 -10z"/>
<path d="M5243 1065 c0 -22 2 -30 4 -17 2 12 2 30 0 40 -3 9 -5 -1 -4 -23z"/>
<path d="M5274 1086 c-11 -29 0 -51 26 -51 21 0 25 5 25 30 0 24 -5 31 -23 33
-13 2 -24 -3 -28 -12z m43 -12 c8 -21 -13 -42 -28 -27 -13 13 -5 43 11 43 6 0
13 -7 17 -16z"/>
<path d="M5341 1061 c1 -36 1 -36 8 -6 8 40 38 46 44 8 4 -28 4 -28 3 2 -1 26
-5 30 -28 31 -26 1 -28 -2 -27 -35z"/>
<path d="M5411 1034 c0 -11 3 -14 6 -6 3 7 2 16 -1 19 -3 4 -6 -2 -5 -13z"/>
<path d="M4831 949 c-1 -43 21 -69 47 -52 11 6 18 25 18 49 l2 39 -7 -40 c-5
-31 -10 -40 -26 -40 -16 0 -21 9 -26 40 l-6 40 -2 -36z"/>
<path d="M4913 935 c0 -27 2 -38 4 -22 2 15 2 37 0 50 -2 12 -4 0 -4 -28z"/>
<path d="M4941 894 c0 -11 3 -14 6 -6 3 7 2 16 -1 19 -3 4 -6 -2 -5 -13z"/>
<path d="M6783 1505 c0 -27 2 -38 4 -22 2 15 2 37 0 50 -2 12 -4 0 -4 -28z"/>
<path d="M6808 1537 c-7 -21 6 -70 20 -73 7 -1 8 0 2 3 -12 6 -13 50 -1 55 5
2 3 8 -4 15 -10 9 -14 9 -17 0z"/>
<path d="M6860 1516 c-23 -28 17 -73 42 -48 8 8 5 9 -9 6 -12 -3 -24 -1 -27 5
-5 7 3 11 19 11 20 0 26 4 23 17 -4 23 -31 28 -48 9z m35 -6 c3 -5 -3 -10 -15
-10 -12 0 -18 5 -15 10 3 6 10 10 15 10 5 0 12 -4 15 -10z"/>
<path d="M6931 1491 c1 -35 2 -35 8 -7 9 43 31 45 32 4 l1 -33 7 29 c9 42 29
44 34 4 l5 -33 -2 35 c-1 34 -2 35 -43 36 -43 0 -43 0 -42 -35z"/>
<path d="M7055 1520 c-8 -14 3 -30 21 -30 8 0 14 -5 14 -11 0 -7 -9 -9 -21 -6
-16 4 -19 3 -11 -5 12 -12 42 -4 42 13 0 6 -9 13 -20 16 -11 3 -20 10 -20 15
0 6 9 8 20 5 11 -3 18 -1 14 4 -7 12 -31 11 -39 -1z"/>
<path d="M7130 1490 c0 -6 115 -10 325 -10 210 0 325 4 325 10 0 6 -115 10
-325 10 -210 0 -325 -4 -325 -10z"/>
</g>
</svg>
